<svg width="34" height="55" viewBox="0 0 34 55" fill="none" xmlns="http://www.w3.org/2000/svg">
<path d="M29.083 1.37634H32.6212V48.5573H1.63867V38.9645L29.083 1.37634Z" fill="#FFF02A"/>
<path d="M1.6123 1.36316L1.62766 38.8831L29.0702 1.3734L1.6123 1.36316Z" fill="#EB212E"/>
<path d="M34.0004 49.9088H0.255859V0H34.0004V49.9088ZM1.53024 48.6344H32.726V1.27438H1.53024V48.6344Z" fill="white"/>
<path d="M0.980469 0.724854V49.1836H33.2732V0.724854H0.980469ZM32.0005 1.99923V47.9092H2.25485V1.99923H32.0005Z" fill="black"/>
<path d="M28.6201 2.00769L1.04785 39.6641L4.2517 39.8091L28.3778 7.09155L28.6201 2.00769Z" fill="#0096D7"/>
<path d="M25.2087 24.2507L12.54 15.8811L26.2084 9.03491L25.2087 24.2507Z" fill="black"/>
<path d="M24.4269 38.1759L15.0645 38.1793L19.7679 30.0093L24.4269 38.1759Z" fill="black"/>
<path d="M17.4971 42.7786C17.5175 40.8508 21.7621 41.0078 23.5158 42.7786H17.4971Z" fill="#EB212E"/>
<path d="M2.51566 54.2781L2.00387 54.9366H0.729492L3.15029 51.7311H4.08859L6.44456 54.9298H5.15142L4.67374 54.2713L2.51566 54.2781ZM3.56144 52.6472H3.54438L2.86198 53.7817H4.34449L3.56144 52.6472Z" fill="black"/>
<path d="M10.5843 54.4079H12.2903V54.93H9.37305V51.8131H10.5843V54.4079Z" fill="black"/>
<path d="M17.2525 54.9348H16.0413V52.3417H14.7891V51.8112H18.5115V52.3417H17.2525V54.9348Z" fill="black"/>
<path d="M22.7073 52.3434V53.0258H24.6334V53.5649H22.7073V54.4179H24.7085V54.9297H21.4961V51.8129H24.7085V52.3434H22.7073Z" fill="black"/>
<path d="M28.0645 51.7313H28.9379L32.2066 53.915H32.2237V51.8132H33.4332V55H32.5597L29.2911 52.8163H29.2757V54.9301H28.0645V51.7313Z" fill="black"/>
</svg>
