<svg width="94" height="40" viewBox="0 0 94 40" fill="none" xmlns="http://www.w3.org/2000/svg">
<path d="M35.0533 8.04154H42.1542V4.73678H44.972C45.6483 4.73678 46.3245 4.84694 46.888 4.9571C48.1279 5.28757 49.0296 6.05867 49.7058 7.05011C50.2694 7.93133 50.6075 8.92276 50.7203 9.91418C50.833 10.7955 50.833 11.7869 50.7203 12.6681C50.4949 13.6595 50.1567 14.651 49.7058 15.5323C49.1423 16.5237 48.1279 17.2948 46.888 17.6252C46.2118 17.8455 45.5355 17.8455 44.8592 17.8455H42.0414V14.5408H34.9406V22.362H45.5355C46.55 22.362 47.5643 22.2518 48.5787 22.1417C50.044 21.9214 51.5092 21.4808 52.8618 20.7096C54.4398 19.8284 55.6796 18.6166 56.4686 17.0745C57.1448 15.9728 57.483 14.651 57.7084 13.4393C57.9338 11.897 57.9338 10.3548 57.7084 8.92276C57.483 7.60089 57.1448 6.38911 56.4686 5.28757C55.6796 3.74536 54.4398 2.53363 52.8618 1.65236C51.5092 0.881261 50.044 0.440631 48.5787 0.220315C47.5643 0.110158 46.55 0 45.5355 0H34.9406V8.04154H35.0533ZM12.511 31.1746H14.7652C15.2161 31.1746 15.5542 31.2848 15.7797 31.395C16.1177 31.6153 16.3432 32.0559 16.3432 32.6067C16.3432 33.1575 16.1177 33.4879 15.7797 33.7082C15.5542 33.8184 15.2161 33.8184 14.7652 33.8184H12.511V31.1746ZM18.9356 39.2161L16.3432 35.1403C17.1322 34.92 17.6957 34.4793 18.0339 33.8184C18.2593 33.2676 18.372 32.827 18.372 32.3863C18.372 31.9457 18.2593 31.5051 18.1466 31.2848C18.0339 31.0645 17.8084 30.734 17.6957 30.5137C17.4703 30.1832 17.1322 29.9629 16.794 29.8527C16.4559 29.7425 15.8923 29.5223 15.2161 29.5223H10.3695V39.2161H12.511V35.4708H14.3144L16.5686 39.2161H18.9356ZM0 39.106H4.28305C7.32624 39.106 8.7915 37.013 8.7915 34.1489C8.7915 30.9543 6.87542 29.302 4.28305 29.302H0V39.106ZM2.14152 31.2848H3.71948C5.86101 31.2848 6.53728 32.4965 6.53728 34.4793C6.53728 36.6825 5.29745 37.3435 4.05762 37.3435H2.14152V31.2848Z" fill="#48535B"/>
<path d="M36.9688 29.4124L34.94 32.4968L33.0238 29.4124H30.4315L33.7001 34.039L30.2061 39.1063H32.573L34.8273 35.8015L36.9688 39.1063H39.6739L36.1798 34.039L39.3357 29.4124H36.9688Z" fill="#48535B"/>
<path d="M40.7988 29.4124V39.1063H47.7869V37.3437H42.9403V29.4124H40.7988Z" fill="#48535B"/>
<path d="M56.9232 29.4124L54.7817 36.132H54.669L52.4147 29.4124H49.2588V39.1063H51.4003V32.3866L53.7673 39.1063H55.458L57.9376 32.2765V39.1063H59.9664V29.4124H56.9232Z" fill="#48535B"/>
<path d="M66.0504 31.8359L67.2906 35.3609H64.6982L66.0504 31.8359ZM64.9237 29.4124L61.2041 39.1063H63.4583L64.2473 36.9031H67.9667L68.7557 39.1063H71.0098L67.2906 29.4124H64.9237Z" fill="#48535B"/>
<path fill-rule="evenodd" clip-rule="evenodd" d="M72.0156 29.4114H74.1576V39.105H72.0156V29.4114Z" fill="#48535B"/>
<path d="M76.0791 29.4121V39.106H83.631V37.3435H78.3332V35.0302H83.067V33.2676H78.3332V31.2848H83.5182V29.4121H76.0791Z" fill="#48535B"/>
<path d="M24.4599 31.8356L25.6997 35.3606H23.1073L24.4599 31.8356ZM23.3328 29.4121L19.6133 39.106H21.8675L22.6565 36.9028H26.376L27.1649 39.106H29.4192L25.6997 29.4121H23.3328Z" fill="#48535B"/>
<path d="M21.7541 31.0645H20.627V29.4121H22.4304L21.7541 31.0645Z" fill="#48535B"/>
<path d="M27.1632 31.0645H28.403V29.4121H26.5996L27.1632 31.0645Z" fill="#48535B"/>
<path d="M87.5754 31.1749H89.8301C90.2807 31.1749 90.6191 31.285 90.844 31.3952C91.1824 31.6155 91.4081 32.0561 91.4081 32.6069C91.4081 33.1577 91.1824 33.4882 90.844 33.7085C90.6191 33.8187 90.2807 33.8186 89.8301 33.8186H87.5754V31.1749ZM93.9999 39.2164L91.5209 35.1405C92.3098 34.9202 92.8732 34.4796 93.2109 33.8186C93.4365 33.2678 93.5493 32.8272 93.5493 32.3866C93.5493 31.946 93.4365 31.5053 93.3237 31.285C93.2109 31.0647 92.986 30.7342 92.8732 30.5139C92.6476 30.1835 92.3098 29.9631 91.9714 29.853C91.633 29.7428 91.0696 29.5225 90.3935 29.5225H85.5469V39.2164H87.6882V35.471H89.4917L91.7458 39.2164H93.9999Z" fill="#48535B"/>
</svg>
