<svg width="94" height="20" viewBox="0 0 94 20" fill="none" xmlns="http://www.w3.org/2000/svg">
<path d="M10.4268 20C8.69599 20 7.28573 18.5897 7.28573 16.859V14.6154C7.28573 14.4231 7.15753 13.9103 6.83701 13.5897C6.5165 13.2692 5.87548 13.141 5.74727 13.141H3.56778C1.83701 13.141 0.426758 11.7308 0.426758 10C0.426758 8.33333 1.83701 6.92308 3.56778 6.92308H5.74727C5.74727 6.92308 6.4524 6.85897 6.83701 6.47436C7.15753 6.15385 7.28573 5.44872 7.28573 5.38462V3.14103C7.28573 1.41026 8.69599 0 10.4268 0C11.9652 0 13.1832 1.02564 13.5037 2.4359C13.5678 2.62821 13.5678 2.82051 13.5678 3.07692V5.25641C13.5678 5.44872 13.696 5.96154 14.0165 6.28205C14.4652 6.73077 15.1062 6.79487 15.1062 6.79487H17.2857C19.0165 6.79487 20.4268 8.20513 20.4268 9.9359C20.4268 11.6667 19.0165 13.0769 17.2857 13.0769C15.555 13.0769 14.1447 11.6667 14.1447 9.9359V7.69231C14.1447 7.5 14.0165 6.98718 13.696 6.66667C13.3755 6.34615 12.7344 6.21795 12.6703 6.21795H8.24727C8.24727 6.21795 7.54214 6.28205 7.15753 6.66667C6.83701 6.98718 6.70881 7.5641 6.70881 7.69231V12.1154C6.70881 12.2436 6.83701 12.8205 7.15753 13.141C7.60624 13.5897 8.24727 13.5897 8.24727 13.5897H10.4268C12.1575 13.5897 13.5678 15 13.5678 16.7308C13.5037 18.5897 12.0934 20 10.4268 20ZM14.0806 3.14103C14.0806 4.8718 15.4909 6.28205 17.2216 6.28205H19.4011C19.4011 6.28205 20.0421 6.34615 20.4909 6.73077C20.8114 7.05128 20.9396 7.69231 20.9396 7.75641V12.2436C20.9396 12.4359 20.8114 12.8846 20.4909 13.2692C20.1062 13.6538 19.4011 13.7179 19.4011 13.7179H15.0421C14.8498 13.7179 14.337 13.5897 14.0165 13.2692C13.696 12.9487 13.5678 12.4359 13.5678 12.2436V10C13.5678 8.26923 12.1575 6.85897 10.4268 6.85897C8.69599 6.85897 7.28573 8.26923 7.28573 10C7.28573 11.7308 8.69599 13.141 10.4268 13.141H12.6062C12.6062 13.141 13.2473 13.2051 13.696 13.6538C14.0165 13.9744 14.1447 14.6154 14.1447 14.6795V16.9231C14.1447 17.1795 14.1447 17.3077 14.2088 17.5641C14.5293 18.9744 15.7473 20 17.2857 20C19.0165 20 20.4268 18.5897 20.4268 16.859V14.6154C20.4268 14.4872 20.555 13.9103 20.8755 13.5256C21.2601 13.141 21.9652 13.0128 21.9652 13.0769H24.1447C25.8755 13.0769 27.2857 11.6667 27.2857 9.9359C27.2857 8.20513 25.8755 6.79487 24.1447 6.79487H21.9652C21.837 6.79487 21.2601 6.66667 20.8755 6.34615C20.555 6.02564 20.4268 5.44872 20.4268 5.32051V3.14103C20.4268 1.41026 19.0165 0 17.2857 0C15.4909 0.0641026 14.0806 1.41026 14.0806 3.14103Z" fill="#CC573B" fill-opacity="0.67"/>
<path d="M41.9491 12.8205H34.5773C34.8337 15 36.0517 15.8974 37.3978 15.8974C38.3594 15.8974 39.1286 15.5769 39.8337 15L41.1158 16.4102C40.0901 17.3718 38.9363 17.8846 37.2696 17.8846C34.6414 17.8846 32.4619 15.7692 32.4619 12.0513C32.4619 8.2051 34.4491 6.21792 37.3337 6.21792C40.4747 6.21792 42.0132 8.78202 42.0132 11.7948C42.0132 12.1795 41.9491 12.5641 41.9491 12.8205ZM37.1414 8.2051C35.667 8.2051 34.7696 9.23074 34.5773 11.0256H39.8337C39.7696 9.48715 39.0004 8.2051 37.1414 8.2051ZM50.1542 17.6282V11.282C50.1542 9.03843 49.2568 8.2051 47.8465 8.2051C46.3722 8.2051 45.5388 9.23074 45.5388 11.0897V17.6282H43.3594V6.47433H45.5388V7.49997C46.0517 6.66664 47.2055 6.21792 48.3594 6.21792C50.9235 6.21792 52.3337 7.94869 52.3337 11.2179V17.6282H50.1542ZM60.7952 17.6282V16.5384C59.9619 17.3077 59.0645 17.8205 57.8465 17.8205C55.4106 17.8205 53.5517 16.0897 53.5517 11.8589C53.5517 8.01279 55.667 6.21792 57.9747 6.21792C59.0645 6.21792 60.1542 6.79484 60.7952 7.49997V3.2051L62.9747 2.11536V17.6923H60.7952V17.6282ZM60.7952 9.74356C60.3465 9.10254 59.2568 8.2692 58.167 8.2692C56.5645 8.2692 55.7311 9.42305 55.7311 11.8589C55.7311 14.6795 56.6286 15.8974 58.2311 15.8974C59.2568 15.8974 60.1542 15.1923 60.7311 14.4872C60.7952 14.4872 60.7952 9.74356 60.7952 9.74356ZM80.7952 17.6282H78.6158L74.6414 6.47433H76.9491L78.9363 12.5C79.2568 13.5897 79.6414 14.6154 79.7696 15.2564C79.8978 14.6154 80.1542 13.5897 80.5388 12.5L82.4619 6.47433H84.8337L80.7952 17.6282ZM71.5645 17.6282V16.5384C70.7311 17.3077 69.8337 17.8205 68.6158 17.8205C66.1799 17.8205 64.3209 16.0897 64.3209 11.8589C64.3209 8.01279 66.4363 6.21792 68.744 6.21792C69.8337 6.21792 70.9235 6.79484 71.5645 7.49997V6.47433H73.744V17.6923H71.5645V17.6282ZM71.5645 9.74356C71.1158 9.10254 70.026 8.2692 68.9363 8.2692C67.3337 8.2692 66.5004 9.42305 66.5004 11.8589C66.5004 14.6795 67.3978 15.8974 69.0004 15.8974C70.026 15.8974 70.9235 15.1923 71.5004 14.4872C71.5645 14.4872 71.5645 9.74356 71.5645 9.74356ZM91.8209 17.6282V16.5384C90.9876 17.3077 90.0901 17.8205 88.8722 17.8205C86.4363 17.8205 84.5773 16.0897 84.5773 11.8589C84.5773 8.01279 86.6927 6.21792 89.0004 6.21792C90.0901 6.21792 91.1799 6.79484 91.8209 7.49997V6.47433H94.0004V17.6923H91.8209V17.6282ZM91.8209 9.74356C91.3722 9.10254 90.2824 8.2692 89.1927 8.2692C87.5901 8.2692 86.7568 9.42305 86.7568 11.8589C86.7568 14.6795 87.6542 15.8974 89.2568 15.8974C90.2824 15.8974 91.1799 15.1923 91.7568 14.4872V9.74356H91.8209Z" fill="#48535B"/>
</svg>
