<svg width="18" height="19" viewBox="0 0 18 19" fill="none" xmlns="http://www.w3.org/2000/svg">
<path d="M8.99983 1.71582C6.00435 1.71582 3.56738 4.1528 3.56738 7.14822C3.56738 10.8657 8.42885 16.323 8.63585 16.5535C8.83025 16.77 9.1697 16.7697 9.3638 16.5535C9.57073 16.323 14.4322 10.8657 14.4322 7.14822C14.4322 4.1528 11.9953 1.71582 8.99983 1.71582ZM8.99983 9.88145C7.49272 9.88145 6.26665 8.65535 6.26665 7.14822C6.26665 5.64113 7.49275 4.41506 8.99983 4.41506C10.5069 4.41506 11.733 5.64116 11.733 7.14825C11.733 8.65535 10.5069 9.88145 8.99983 9.88145Z" fill="black"/>
</svg>
