<svg width="581" height="860" viewBox="0 0 581 860" fill="none" xmlns="http://www.w3.org/2000/svg">
<g clip-path="url(#clip0_4492_1476)">
<path d="M44.8633 729.544C38.203 731.811 38.0208 744.467 41.305 751.664L51.9905 750.665C51.9905 750.665 53.3157 744.303 53.1507 738.1C53.0607 734.716 50.9985 727.456 44.8633 729.544Z" fill="black"/>
<path d="M41.7455 754.481C41.7455 754.481 41.5762 764.758 48.7179 763.831C55.046 763.01 52.4118 753.159 52.4118 753.159L41.7455 754.481Z" fill="black"/>
<path d="M73.1285 729.02C66.9203 727.161 65.1286 734.493 65.164 737.878C65.2288 744.083 66.7889 750.391 66.7889 750.391L77.5039 750.993C80.5195 743.679 79.8684 731.039 73.1285 729.02Z" fill="black"/>
<path d="M66.46 752.899C66.46 752.899 64.1927 762.841 70.5466 763.427C77.7179 764.088 77.168 753.824 77.168 753.824L66.46 752.899Z" fill="black"/>
</g>
<g clip-path="url(#clip1_4492_1476)">
<path d="M62.2329 662.332C55.2967 661.155 49.1107 672.198 48.5725 680.09L58.4446 684.299C58.4446 684.299 62.6388 679.336 65.4469 673.803C66.979 670.784 68.6223 663.417 62.2329 662.332Z" fill="black"/>
<path d="M47.6188 682.777C47.6188 682.777 42.577 691.734 49.2985 694.319C55.2542 696.61 57.6279 686.693 57.6279 686.693L47.6188 682.777Z" fill="black"/>
<path d="M87.3379 675.329C82.7638 670.738 77.6973 676.333 76.1167 679.326C73.2195 684.814 71.5882 691.104 71.5882 691.104L80.7243 696.735C86.8581 691.739 92.3039 680.313 87.3379 675.329Z" fill="black"/>
<path d="M70.1052 693.153C70.1052 693.153 63.3779 700.816 68.6865 704.357C74.678 708.352 79.081 699.065 79.081 699.065L70.1052 693.153Z" fill="black"/>
</g>
<g clip-path="url(#clip2_4492_1476)">
<path d="M114.34 607.115C107.908 604.265 99.1928 613.445 96.7276 620.961L105.259 627.472C105.259 627.472 110.546 623.695 114.631 619.023C116.859 616.475 120.266 609.74 114.34 607.115Z" fill="black"/>
<path d="M95.1415 623.331C95.1415 623.331 88.0492 630.77 93.927 634.931C99.1352 638.618 103.878 629.591 103.878 629.591L95.1415 623.331Z" fill="black"/>
<path d="M135.472 625.894C132.169 620.318 125.881 624.492 123.612 627.005C119.453 631.61 116.322 637.304 116.322 637.304L123.791 645.011C130.966 641.68 139.058 631.947 135.472 625.894Z" fill="black"/>
<path d="M114.38 638.925C114.38 638.925 105.973 644.695 110.246 649.434C115.069 654.782 121.624 646.865 121.624 646.865L114.38 638.925Z" fill="black"/>
</g>
<g clip-path="url(#clip3_4492_1476)">
<path d="M195.799 575.134C191.255 569.762 179.407 574.216 173.908 579.903L178.741 589.485C178.741 589.485 185.147 588.394 190.861 585.974C193.979 584.654 199.984 580.082 195.799 575.134Z" fill="black"/>
<path d="M171.446 581.342C171.446 581.342 161.818 584.939 165.289 591.249C168.366 596.839 176.573 590.788 176.573 590.788L171.446 581.342Z" fill="black"/>
<path d="M206.613 601.254C206.076 594.795 198.596 595.806 195.458 597.076C189.705 599.403 184.403 603.16 184.403 603.16L187.758 613.354C195.667 613.489 207.196 608.265 206.613 601.254Z" fill="black"/>
<path d="M181.949 603.77C181.949 603.77 171.866 605.292 173.642 611.421C175.646 618.338 184.999 614.076 184.999 614.076L181.949 603.77Z" fill="black"/>
</g>
<g clip-path="url(#clip4_4492_1476)">
<path d="M278.283 566.023C275.894 559.406 263.236 559.457 256.102 562.874L257.298 573.539C257.298 573.539 263.683 574.747 269.882 574.467C273.263 574.315 280.485 572.118 278.283 566.023Z" fill="black"/>
<path d="M253.293 563.367C253.293 563.367 243.015 563.388 244.073 570.511C245.011 576.823 254.812 574.007 254.812 574.007L253.293 563.367Z" fill="black"/>
<path d="M279.33 594.274C281.074 588.032 273.71 586.376 270.327 586.474C264.124 586.654 257.846 588.33 257.846 588.33L257.442 599.054C264.81 601.934 277.437 601.05 279.33 594.274Z" fill="black"/>
<path d="M255.332 588.048C255.332 588.048 245.35 585.965 244.881 592.328C244.353 599.511 254.604 598.771 254.604 598.771L255.332 588.048Z" fill="black"/>
</g>
<g clip-path="url(#clip5_4492_1476)">
<path d="M353.687 551.394C350.792 544.982 338.177 546.014 331.328 549.973L333.346 560.513C333.346 560.513 339.806 561.223 345.964 560.464C349.324 560.05 356.354 557.301 353.687 551.394Z" fill="black"/>
<path d="M328.566 550.681C328.566 550.681 318.32 551.498 319.927 558.518C321.351 564.738 330.904 561.172 330.904 561.172L328.566 550.681Z" fill="black"/>
<path d="M356.918 579.479C358.174 573.121 350.704 572.04 347.338 572.4C341.168 573.06 335.038 575.217 335.038 575.217L335.466 585.941C343.035 588.241 355.555 586.381 356.918 579.479Z" fill="black"/>
<path d="M332.51 575.131C332.51 575.131 322.397 573.827 322.423 580.208C322.452 587.409 332.616 585.878 332.616 585.878L332.51 575.131Z" fill="black"/>
</g>
<g clip-path="url(#clip6_4492_1476)">
<path d="M422.382 533.566C416.704 529.411 406.233 536.522 402.222 543.341L409.17 551.52C409.17 551.52 415.141 548.956 420.127 545.263C422.847 543.248 427.612 537.394 422.382 533.566Z" fill="black"/>
<path d="M400.168 545.318C400.168 545.318 391.653 551.074 396.508 556.393C400.811 561.105 407.369 553.296 407.369 553.296L400.168 545.318Z" fill="black"/>
<path d="M439.025 556.418C436.987 550.266 429.953 553.004 427.201 554.975C422.155 558.588 417.883 563.484 417.883 563.484L423.537 572.606C431.257 570.881 441.238 563.096 439.025 556.418Z" fill="black"/>
<path d="M415.641 564.654C415.641 564.654 406.196 568.5 409.361 574.04C412.934 580.294 421.025 573.956 421.025 573.956L415.641 564.654Z" fill="black"/>
</g>
<g clip-path="url(#clip7_4492_1476)">
<path d="M461.299 492.341C454.365 491.148 448.155 502.177 447.599 510.069L457.462 514.3C457.462 514.3 461.667 509.345 464.488 503.818C466.026 500.803 467.686 493.44 461.299 492.341Z" fill="black"/>
<path d="M446.64 512.754C446.64 512.754 441.579 521.699 448.295 524.3C454.245 526.603 456.641 516.692 456.641 516.692L446.64 512.754Z" fill="black"/>
<path d="M486.376 505.392C481.812 500.791 476.733 506.375 475.146 509.365C472.237 514.846 470.592 521.133 470.592 521.133L479.716 526.783C485.86 521.801 491.331 510.387 486.376 505.392Z" fill="black"/>
<path d="M469.104 523.178C469.104 523.178 462.36 530.827 467.661 534.379C473.643 538.388 478.067 529.11 478.067 529.11L469.104 523.178Z" fill="black"/>
</g>
<g clip-path="url(#clip8_4492_1476)">
<path d="M473.456 435.679C466.539 436.967 464.541 449.465 466.758 457.059L477.476 457.605C477.476 457.605 479.701 451.5 480.429 445.337C480.825 441.976 479.827 434.494 473.456 435.679Z" fill="black"/>
<path d="M466.79 459.91C466.79 459.91 465.147 470.056 472.347 470.165C478.728 470.261 477.536 460.134 477.536 460.134L466.79 459.91Z" fill="black"/>
<path d="M501.503 439.22C495.627 436.488 492.8 443.487 492.349 446.842C491.523 452.992 492.161 459.459 492.161 459.459L502.678 461.593C506.713 454.788 507.884 442.185 501.503 439.22Z" fill="black"/>
<path d="M491.475 461.893C491.475 461.893 487.804 471.407 494.008 472.899C501.009 474.583 501.939 464.347 501.939 464.347L491.475 461.893Z" fill="black"/>
</g>
<g clip-path="url(#clip9_4492_1476)">
<path d="M469.4 325.948C463.394 329.613 465.978 342.004 470.753 348.311L480.963 345.005C480.963 345.005 480.869 338.508 479.354 332.49C478.528 329.207 474.932 322.571 469.4 325.948Z" fill="black"/>
<path d="M471.798 350.964C471.798 350.964 473.875 361.03 480.642 358.568C486.639 356.386 481.919 347.347 481.919 347.347L471.798 350.964Z" fill="black"/>
<path d="M496.87 319.27C490.406 318.81 490.257 326.356 491.03 329.652C492.447 335.693 495.346 341.509 495.346 341.509L505.934 339.758C507.281 331.963 503.888 319.769 496.87 319.27Z" fill="black"/>
<path d="M495.572 344.028C495.572 344.028 495.528 354.225 501.857 353.411C509 352.491 506.224 342.595 506.224 342.595L495.572 344.028Z" fill="black"/>
</g>
<g clip-path="url(#clip10_4492_1476)">
<path d="M383.624 260.425C382.637 267.391 393.846 273.271 401.75 273.593L405.687 263.609C405.687 263.609 400.61 259.552 395.002 256.897C391.942 255.449 384.533 254.008 383.624 260.425Z" fill="black"/>
<path d="M404.462 274.472C404.462 274.472 413.554 279.266 415.954 272.476C418.081 266.46 408.102 264.359 408.102 264.359L404.462 274.472Z" fill="black"/>
<path d="M395.926 234.972C391.463 239.671 397.194 244.582 400.23 246.079C405.795 248.825 412.128 250.283 412.128 250.283L417.505 240.996C412.343 235.001 400.772 229.871 395.926 234.972Z" fill="black"/>
<path d="M414.216 251.709C414.216 251.709 422.062 258.223 425.455 252.82C429.285 246.721 419.88 242.574 419.88 242.574L414.216 251.709Z" fill="black"/>
</g>
<g clip-path="url(#clip11_4492_1476)">
<path d="M55.5666 73.7233C50.3364 78.4291 55.1511 90.1351 61.0032 95.4578L70.4329 90.3335C70.4329 90.3335 69.1468 83.9639 66.5532 78.3267C65.1383 75.2513 60.3844 69.3887 55.5666 73.7233Z" fill="black"/>
<path d="M62.5169 97.8739C62.5169 97.8739 66.4069 107.388 72.6072 103.725C78.1012 100.479 71.8017 92.4601 71.8017 92.4601L62.5169 97.8739Z" fill="black"/>
<path d="M81.3435 62.1149C74.9046 62.8496 76.1439 70.295 77.509 73.3928C80.0112 79.0713 83.9286 84.2558 83.9286 84.2558L94.0153 80.591C93.9084 72.681 88.3338 61.3172 81.3435 62.1149Z" fill="black"/>
<path d="M84.6133 86.6905C84.6133 86.6905 86.4428 96.7223 92.5144 94.7596C99.3669 92.5445 94.821 83.3261 94.821 83.3261L84.6133 86.6905Z" fill="black"/>
</g>
<g clip-path="url(#clip12_4492_1476)">
<path d="M441.417 281.944C437.595 287.851 445.296 297.896 452.334 301.508L460.101 294.102C460.101 294.102 457.198 288.288 453.224 283.523C451.056 280.923 444.937 276.503 441.417 281.944Z" fill="black"/>
<path d="M454.425 303.446C454.425 303.446 460.662 311.616 465.692 306.463C470.149 301.896 461.977 295.798 461.977 295.798L454.425 303.446Z" fill="black"/>
<path d="M463.274 264.015C457.25 266.403 460.388 273.268 462.514 275.902C466.41 280.732 471.544 284.715 471.544 284.715L480.326 278.547C478.16 270.938 469.815 261.422 463.274 264.015Z" fill="black"/>
<path d="M472.841 286.887C472.841 286.887 477.223 296.094 482.573 292.616C488.61 288.691 481.818 280.977 481.818 280.977L472.841 286.887Z" fill="black"/>
</g>
<g clip-path="url(#clip13_4492_1476)">
<path d="M314.784 249.206C315.937 256.146 328.395 258.385 336.03 256.315L336.783 245.609C336.783 245.609 330.722 243.267 324.574 242.421C321.221 241.959 313.721 242.813 314.784 249.206Z" fill="black"/>
<path d="M338.882 256.338C338.882 256.338 348.995 258.177 349.242 250.979C349.461 244.602 339.313 245.599 339.313 245.599L338.882 256.338Z" fill="black"/>
<path d="M318.864 221.232C316.02 227.055 322.963 230.016 326.309 230.531C332.442 231.476 338.92 230.963 338.92 230.963L341.256 220.489C334.531 216.324 321.952 214.91 318.864 221.232Z" fill="black"/>
<path d="M341.341 231.695C341.341 231.695 350.781 235.549 352.393 229.375C354.212 222.407 343.996 221.28 343.996 221.28L341.341 231.695Z" fill="black"/>
</g>
<g clip-path="url(#clip14_4492_1476)">
<path d="M226.219 226.041C225.242 233.009 236.459 238.874 244.363 239.185L248.286 229.195C248.286 229.195 243.204 225.146 237.592 222.498C234.531 221.054 227.12 219.624 226.219 226.041Z" fill="black"/>
<path d="M247.077 240.061C247.077 240.061 256.176 244.842 258.566 238.049C260.685 232.03 250.703 229.943 250.703 229.943L247.077 240.061Z" fill="black"/>
<path d="M238.487 200.572C234.03 205.277 239.768 210.18 242.806 211.673C248.375 214.411 254.709 215.861 254.709 215.861L260.074 206.566C254.904 200.579 243.326 195.465 238.487 200.572Z" fill="black"/>
<path d="M256.8 217.284C256.8 217.284 264.654 223.788 268.04 218.379C271.861 212.275 262.451 208.142 262.451 208.142L256.8 217.284Z" fill="black"/>
</g>
<g clip-path="url(#clip15_4492_1476)">
<path d="M156.89 184.39C154.369 190.958 163.976 199.199 171.608 201.281L177.68 192.432C177.68 192.432 173.64 187.342 168.768 183.499C166.11 181.402 159.212 178.34 156.89 184.39Z" fill="black"/>
<path d="M174.054 202.746C174.054 202.746 181.842 209.453 185.701 203.373C189.121 197.985 179.866 193.704 179.866 193.704L174.054 202.746Z" fill="black"/>
<path d="M174.577 162.337C169.175 165.917 173.662 171.987 176.286 174.126C181.095 178.048 186.94 180.886 186.94 180.886L194.26 173.038C190.571 166.041 180.442 158.45 174.577 162.337Z" fill="black"/>
<path d="M188.657 182.744C188.657 182.744 194.844 190.849 199.361 186.342C204.459 181.255 196.221 175.109 196.221 175.109L188.657 182.744Z" fill="black"/>
</g>
<g clip-path="url(#clip16_4492_1476)">
<path d="M107.521 128.393C103.779 134.35 111.613 144.292 118.699 147.81L126.366 140.3C126.366 140.3 123.386 134.526 119.348 129.814C117.146 127.243 110.969 122.905 107.521 128.393Z" fill="black"/>
<path d="M120.816 149.719C120.816 149.719 127.162 157.805 132.123 152.585C136.519 147.96 128.265 141.971 128.265 141.971L120.816 149.719Z" fill="black"/>
<path d="M129.137 110.173C123.145 112.642 126.375 119.464 128.535 122.07C132.496 126.847 137.683 130.761 137.683 130.761L146.382 124.476C144.114 116.897 135.642 107.493 129.137 110.173Z" fill="black"/>
<path d="M139.009 132.916C139.009 132.916 143.514 142.064 148.816 138.514C154.801 134.508 147.906 126.886 147.906 126.886L139.009 132.916Z" fill="black"/>
</g>
<circle cx="57" cy="800" r="19" fill="#FF8267"/>
<path d="M100.96 809V807.344C100.976 807.328 101.184 807.2 101.584 806.96C102 806.72 102.528 806.392 103.168 805.976C103.808 805.544 104.472 805.064 105.16 804.536C105.864 803.992 106.512 803.416 107.104 802.808C107.696 802.2 108.144 801.6 108.448 801.008C108.816 800.24 108.928 799.56 108.784 798.968C108.656 798.36 108.336 797.888 107.824 797.552C107.328 797.2 106.712 797.024 105.976 797.024C105.064 797.04 104.336 797.336 103.792 797.912C103.248 798.488 103.024 799.352 103.12 800.504L101.272 800.264C101.192 799.24 101.352 798.368 101.752 797.648C102.168 796.912 102.76 796.352 103.528 795.968C104.296 795.568 105.184 795.368 106.192 795.368C107.056 795.368 107.824 795.528 108.496 795.848C109.168 796.152 109.704 796.584 110.104 797.144C110.52 797.688 110.752 798.312 110.8 799.016C110.848 799.72 110.68 800.464 110.296 801.248C109.992 801.84 109.568 802.424 109.024 803C108.496 803.56 107.912 804.088 107.272 804.584C106.632 805.08 106.008 805.528 105.4 805.928C104.808 806.312 104.288 806.624 103.84 806.864C103.408 807.088 103.136 807.224 103.024 807.272H111.064V809H100.96ZM118.501 809.336C116.549 809.336 115.109 808.704 114.181 807.44C113.269 806.16 112.813 804.44 112.813 802.28C112.813 800.856 113.005 799.624 113.389 798.584C113.789 797.528 114.405 796.712 115.237 796.136C116.085 795.544 117.173 795.248 118.501 795.248C119.797 795.248 120.861 795.536 121.693 796.112C122.541 796.688 123.165 797.504 123.565 798.56C123.981 799.616 124.189 800.856 124.189 802.28C124.189 803.672 123.981 804.904 123.565 805.976C123.165 807.032 122.541 807.856 121.693 808.448C120.861 809.04 119.797 809.336 118.501 809.336ZM118.477 807.656C119.805 807.656 120.773 807.192 121.381 806.264C122.005 805.336 122.317 804.008 122.317 802.28C122.317 800.568 122.013 799.248 121.405 798.32C120.797 797.376 119.821 796.904 118.477 796.904C117.181 796.904 116.221 797.36 115.597 798.272C114.989 799.168 114.685 800.504 114.685 802.28C114.685 803.992 114.981 805.32 115.573 806.264C116.165 807.192 117.133 807.656 118.477 807.656ZM132.38 807.272V809H126.356V807.272H128.54V798.104C128.396 798.648 128.18 799.072 127.892 799.376C127.604 799.664 127.3 799.88 126.98 800.024C126.66 800.152 126.372 800.232 126.116 800.264C125.876 800.28 125.716 800.288 125.636 800.288V798.152C125.732 798.168 125.932 798.16 126.236 798.128C126.556 798.08 126.9 797.968 127.268 797.792C127.636 797.616 127.964 797.344 128.252 796.976C128.54 796.608 128.692 796.112 128.708 795.488H130.484V807.272H132.38ZM139.496 809.24C138.024 809.24 136.856 808.88 135.992 808.16C135.128 807.44 134.584 806.56 134.36 805.52L136.352 805.256C136.368 805.352 136.424 805.52 136.52 805.76C136.616 806 136.784 806.264 137.024 806.552C137.264 806.824 137.584 807.056 137.984 807.248C138.4 807.44 138.92 807.536 139.544 807.536C140.232 807.536 140.808 807.4 141.272 807.128C141.752 806.856 142.12 806.496 142.376 806.048C142.632 805.6 142.776 805.136 142.808 804.656C142.856 804.128 142.768 803.624 142.544 803.144C142.32 802.648 141.968 802.24 141.488 801.92C141.008 801.6 140.4 801.44 139.664 801.44C138.96 801.44 138.4 801.56 137.984 801.8C137.568 802.024 137.264 802.256 137.072 802.496C136.896 802.736 136.808 802.864 136.808 802.88L134.792 802.52L135.488 795.488H144.128V797.216H136.928L136.448 801.776C136.448 801.776 136.512 801.696 136.64 801.536C136.784 801.36 137 801.16 137.288 800.936C137.592 800.696 137.976 800.488 138.44 800.312C138.92 800.136 139.504 800.048 140.192 800.048C141.28 800.048 142.168 800.28 142.856 800.744C143.56 801.192 144.064 801.768 144.368 802.472C144.688 803.176 144.824 803.912 144.776 804.68C144.712 805.448 144.464 806.184 144.032 806.888C143.616 807.576 143.024 808.144 142.256 808.592C141.488 809.024 140.568 809.24 139.496 809.24Z" fill="black"/>
<circle cx="492" cy="400" r="19" fill="#FFC567"/>
<path d="M535.96 409V407.344C535.976 407.328 536.184 407.2 536.584 406.96C537 406.72 537.528 406.392 538.168 405.976C538.808 405.544 539.472 405.064 540.16 404.536C540.864 403.992 541.512 403.416 542.104 402.808C542.696 402.2 543.144 401.6 543.448 401.008C543.816 400.24 543.928 399.56 543.784 398.968C543.656 398.36 543.336 397.888 542.824 397.552C542.328 397.2 541.712 397.024 540.976 397.024C540.064 397.04 539.336 397.336 538.792 397.912C538.248 398.488 538.024 399.352 538.12 400.504L536.272 400.264C536.192 399.24 536.352 398.368 536.752 397.648C537.168 396.912 537.76 396.352 538.528 395.968C539.296 395.568 540.184 395.368 541.192 395.368C542.056 395.368 542.824 395.528 543.496 395.848C544.168 396.152 544.704 396.584 545.104 397.144C545.52 397.688 545.752 398.312 545.8 399.016C545.848 399.72 545.68 400.464 545.296 401.248C544.992 401.84 544.568 402.424 544.024 403C543.496 403.56 542.912 404.088 542.272 404.584C541.632 405.08 541.008 405.528 540.4 405.928C539.808 406.312 539.288 406.624 538.84 406.864C538.408 407.088 538.136 407.224 538.024 407.272H546.064V409H535.96ZM553.501 409.336C551.549 409.336 550.109 408.704 549.181 407.44C548.269 406.16 547.813 404.44 547.813 402.28C547.813 400.856 548.005 399.624 548.389 398.584C548.789 397.528 549.405 396.712 550.237 396.136C551.085 395.544 552.173 395.248 553.501 395.248C554.797 395.248 555.861 395.536 556.693 396.112C557.541 396.688 558.165 397.504 558.565 398.56C558.981 399.616 559.189 400.856 559.189 402.28C559.189 403.672 558.981 404.904 558.565 405.976C558.165 407.032 557.541 407.856 556.693 408.448C555.861 409.04 554.797 409.336 553.501 409.336ZM553.477 407.656C554.805 407.656 555.773 407.192 556.381 406.264C557.005 405.336 557.317 404.008 557.317 402.28C557.317 400.568 557.013 399.248 556.405 398.32C555.797 397.376 554.821 396.904 553.477 396.904C552.181 396.904 551.221 397.36 550.597 398.272C549.989 399.168 549.685 400.504 549.685 402.28C549.685 403.992 549.981 405.32 550.573 406.264C551.165 407.192 552.133 407.656 553.477 407.656ZM567.38 407.272V409H561.356V407.272H563.54V398.104C563.396 398.648 563.18 399.072 562.892 399.376C562.604 399.664 562.3 399.88 561.98 400.024C561.66 400.152 561.372 400.232 561.116 400.264C560.876 400.28 560.716 400.288 560.636 400.288V398.152C560.732 398.168 560.932 398.16 561.236 398.128C561.556 398.08 561.9 397.968 562.268 397.792C562.636 397.616 562.964 397.344 563.252 396.976C563.54 396.608 563.692 396.112 563.708 395.488H565.484V407.272H567.38ZM573.104 409H571.112C571.112 407.16 571.376 405.496 571.904 404.008C572.448 402.52 573.184 401.216 574.112 400.096C575.056 398.96 576.128 398 577.328 397.216H569.336V395.488H579.248V397.168C578.864 397.424 578.408 397.76 577.88 398.176C577.352 398.592 576.808 399.112 576.248 399.736C575.704 400.344 575.192 401.088 574.712 401.968C574.232 402.832 573.84 403.848 573.536 405.016C573.248 406.168 573.104 407.496 573.104 409Z" fill="black"/>
<circle cx="59" cy="19" r="19" fill="#55BB98"/>
<path d="M102.96 26V24.344C102.976 24.328 103.184 24.2 103.584 23.96C104 23.72 104.528 23.392 105.168 22.976C105.808 22.544 106.472 22.064 107.16 21.536C107.864 20.992 108.512 20.416 109.104 19.808C109.696 19.2 110.144 18.6 110.448 18.008C110.816 17.24 110.928 16.56 110.784 15.968C110.656 15.36 110.336 14.888 109.824 14.552C109.328 14.2 108.712 14.024 107.976 14.024C107.064 14.04 106.336 14.336 105.792 14.912C105.248 15.488 105.024 16.352 105.12 17.504L103.272 17.264C103.192 16.24 103.352 15.368 103.752 14.648C104.168 13.912 104.76 13.352 105.528 12.968C106.296 12.568 107.184 12.368 108.192 12.368C109.056 12.368 109.824 12.528 110.496 12.848C111.168 13.152 111.704 13.584 112.104 14.144C112.52 14.688 112.752 15.312 112.8 16.016C112.848 16.72 112.68 17.464 112.296 18.248C111.992 18.84 111.568 19.424 111.024 20C110.496 20.56 109.912 21.088 109.272 21.584C108.632 22.08 108.008 22.528 107.4 22.928C106.808 23.312 106.288 23.624 105.84 23.864C105.408 24.088 105.136 24.224 105.024 24.272H113.064V26H102.96ZM120.501 26.336C118.549 26.336 117.109 25.704 116.181 24.44C115.269 23.16 114.813 21.44 114.813 19.28C114.813 17.856 115.005 16.624 115.389 15.584C115.789 14.528 116.405 13.712 117.237 13.136C118.085 12.544 119.173 12.248 120.501 12.248C121.797 12.248 122.861 12.536 123.693 13.112C124.541 13.688 125.165 14.504 125.565 15.56C125.981 16.616 126.189 17.856 126.189 19.28C126.189 20.672 125.981 21.904 125.565 22.976C125.165 24.032 124.541 24.856 123.693 25.448C122.861 26.04 121.797 26.336 120.501 26.336ZM120.477 24.656C121.805 24.656 122.773 24.192 123.381 23.264C124.005 22.336 124.317 21.008 124.317 19.28C124.317 17.568 124.013 16.248 123.405 15.32C122.797 14.376 121.821 13.904 120.477 13.904C119.181 13.904 118.221 14.36 117.597 15.272C116.989 16.168 116.685 17.504 116.685 19.28C116.685 20.992 116.981 22.32 117.573 23.264C118.165 24.192 119.133 24.656 120.477 24.656ZM134.38 24.272V26H128.356V24.272H130.54V15.104C130.396 15.648 130.18 16.072 129.892 16.376C129.604 16.664 129.3 16.88 128.98 17.024C128.66 17.152 128.372 17.232 128.116 17.264C127.876 17.28 127.716 17.288 127.636 17.288V15.152C127.732 15.168 127.932 15.16 128.236 15.128C128.556 15.08 128.9 14.968 129.268 14.792C129.636 14.616 129.964 14.344 130.252 13.976C130.54 13.608 130.692 13.112 130.708 12.488H132.484V24.272H134.38ZM141.544 26.24C140.536 26.24 139.712 26.104 139.072 25.832C138.432 25.544 137.928 25.216 137.56 24.848C137.208 24.464 136.96 24.128 136.816 23.84C136.672 23.552 136.6 23.4 136.6 23.384L138.544 22.928C138.544 22.944 138.592 23.032 138.688 23.192C138.784 23.336 138.944 23.512 139.168 23.72C139.408 23.912 139.72 24.088 140.104 24.248C140.488 24.392 140.968 24.464 141.544 24.464C142.792 24.464 143.72 23.92 144.328 22.832C144.952 21.744 145.232 20.152 145.168 18.056C145.136 18.296 145.024 18.6 144.832 18.968C144.656 19.32 144.4 19.672 144.064 20.024C143.728 20.376 143.296 20.672 142.768 20.912C142.256 21.152 141.656 21.272 140.968 21.272C139.896 21.272 139.008 21.056 138.304 20.624C137.616 20.192 137.104 19.64 136.768 18.968C136.448 18.296 136.304 17.584 136.336 16.832C136.384 16.064 136.608 15.344 137.008 14.672C137.408 14 137.992 13.448 138.76 13.016C139.528 12.584 140.472 12.368 141.592 12.368C142.952 12.368 144.048 12.696 144.88 13.352C145.712 13.992 146.304 14.848 146.656 15.92C147.024 16.992 147.176 18.16 147.112 19.424C147.064 20.688 146.856 21.84 146.488 22.88C146.12 23.904 145.536 24.72 144.736 25.328C143.952 25.936 142.888 26.24 141.544 26.24ZM141.376 20.024C142.416 20.024 143.232 19.712 143.824 19.088C144.432 18.448 144.792 17.656 144.904 16.712C144.68 15.8 144.272 15.12 143.68 14.672C143.088 14.224 142.384 14 141.568 14C140.72 14 140.032 14.2 139.504 14.6C138.992 15 138.64 15.504 138.448 16.112C138.256 16.704 138.232 17.304 138.376 17.912C138.536 18.504 138.864 19.008 139.36 19.424C139.856 19.824 140.528 20.024 141.376 20.024ZM154.663 21.32V19.88H159.991V21.32H154.663ZM170.213 26H168.221V12.488H173.501C174.989 12.488 176.141 12.856 176.957 13.592C177.773 14.328 178.181 15.432 178.181 16.904C178.181 18.232 177.757 19.264 176.909 20C176.077 20.736 174.941 21.104 173.501 21.104H170.213V26ZM173.261 14.144H170.213V19.592H173.261C174.221 19.592 174.973 19.368 175.517 18.92C176.077 18.472 176.357 17.792 176.357 16.88C176.357 15.936 176.085 15.248 175.541 14.816C174.997 14.368 174.237 14.144 173.261 14.144ZM179.721 26V16.184H181.569L181.737 18.848C181.833 18.416 182.017 18 182.289 17.6C182.577 17.184 182.969 16.848 183.465 16.592C183.977 16.32 184.625 16.184 185.409 16.184H185.817V18.392H185.385C184.409 18.392 183.657 18.52 183.129 18.776C182.601 19.016 182.233 19.376 182.025 19.856C181.817 20.32 181.713 20.896 181.713 21.584V26H179.721ZM191.635 26.24C190.531 26.24 189.627 26 188.923 25.52C188.219 25.024 187.699 24.392 187.363 23.624C187.027 22.856 186.859 22.048 186.859 21.2C186.843 20.256 187.019 19.4 187.387 18.632C187.771 17.864 188.315 17.256 189.019 16.808C189.739 16.36 190.595 16.136 191.587 16.136C192.435 16.136 193.195 16.328 193.867 16.712C194.555 17.08 195.099 17.608 195.499 18.296C195.899 18.968 196.115 19.768 196.147 20.696C196.147 20.744 196.147 20.84 196.147 20.984C196.163 21.112 196.171 21.224 196.171 21.32H188.755C188.755 22.344 189.003 23.144 189.499 23.72C190.011 24.28 190.715 24.56 191.611 24.56C192.283 24.56 192.851 24.392 193.315 24.056C193.795 23.704 194.091 23.24 194.203 22.664H196.147C196.003 23.688 195.539 24.544 194.755 25.232C193.971 25.904 192.931 26.24 191.635 26.24ZM188.827 20.336H194.155C194.139 20.16 194.091 19.928 194.011 19.64C193.931 19.352 193.795 19.072 193.603 18.8C193.427 18.512 193.171 18.272 192.835 18.08C192.499 17.888 192.067 17.792 191.539 17.792C190.883 17.792 190.363 17.936 189.979 18.224C189.611 18.496 189.331 18.832 189.139 19.232C188.963 19.616 188.859 19.984 188.827 20.336ZM202.1 26.24C201.364 26.24 200.668 26.08 200.012 25.76C199.372 25.44 198.852 25.016 198.452 24.488C198.068 23.944 197.876 23.36 197.876 22.736H199.748C199.748 22.768 199.756 22.888 199.772 23.096C199.788 23.304 199.86 23.536 199.988 23.792C200.116 24.048 200.34 24.272 200.66 24.464C200.996 24.656 201.468 24.752 202.076 24.752C202.748 24.752 203.292 24.632 203.708 24.392C204.124 24.152 204.332 23.816 204.332 23.384C204.332 22.984 204.18 22.672 203.876 22.448C203.572 22.224 203.18 22.048 202.7 21.92C202.22 21.776 201.708 21.64 201.164 21.512C200.636 21.384 200.132 21.216 199.652 21.008C199.188 20.784 198.804 20.488 198.5 20.12C198.212 19.736 198.076 19.224 198.092 18.584C198.092 17.72 198.452 17.056 199.172 16.592C199.908 16.112 200.836 15.872 201.956 15.872C202.676 15.872 203.364 15.992 204.02 16.232C204.676 16.456 205.212 16.824 205.628 17.336C206.06 17.848 206.268 18.536 206.252 19.4H204.404C204.42 18.856 204.292 18.448 204.02 18.176C203.764 17.888 203.444 17.696 203.06 17.6C202.676 17.488 202.316 17.432 201.98 17.432C201.34 17.432 200.836 17.552 200.468 17.792C200.1 18.016 199.916 18.32 199.916 18.704C199.916 19.12 200.068 19.44 200.372 19.664C200.676 19.872 201.068 20.048 201.548 20.192C202.028 20.32 202.532 20.448 203.06 20.576C203.604 20.704 204.116 20.872 204.596 21.08C205.076 21.288 205.468 21.584 205.772 21.968C206.092 22.352 206.252 22.864 206.252 23.504C206.252 24.448 205.86 25.144 205.076 25.592C204.292 26.024 203.3 26.24 202.1 26.24ZM212.424 26.24C211.32 26.24 210.416 26 209.712 25.52C209.008 25.024 208.488 24.392 208.152 23.624C207.816 22.856 207.648 22.048 207.648 21.2C207.632 20.256 207.808 19.4 208.176 18.632C208.56 17.864 209.104 17.256 209.808 16.808C210.528 16.36 211.384 16.136 212.376 16.136C213.224 16.136 213.984 16.328 214.656 16.712C215.344 17.08 215.888 17.608 216.288 18.296C216.688 18.968 216.904 19.768 216.936 20.696C216.936 20.744 216.936 20.84 216.936 20.984C216.952 21.112 216.96 21.224 216.96 21.32H209.544C209.544 22.344 209.792 23.144 210.288 23.72C210.8 24.28 211.504 24.56 212.4 24.56C213.072 24.56 213.64 24.392 214.104 24.056C214.584 23.704 214.88 23.24 214.992 22.664H216.936C216.792 23.688 216.328 24.544 215.544 25.232C214.76 25.904 213.72 26.24 212.424 26.24ZM209.616 20.336H214.944C214.928 20.16 214.88 19.928 214.8 19.64C214.72 19.352 214.584 19.072 214.392 18.8C214.216 18.512 213.96 18.272 213.624 18.08C213.288 17.888 212.856 17.792 212.328 17.792C211.672 17.792 211.152 17.936 210.768 18.224C210.4 18.496 210.12 18.832 209.928 19.232C209.752 19.616 209.648 19.984 209.616 20.336ZM218.881 26V16.208H220.585L220.921 18.464H220.969C220.985 18.4 221.049 18.248 221.161 18.008C221.273 17.768 221.457 17.512 221.713 17.24C221.969 16.952 222.313 16.704 222.745 16.496C223.177 16.288 223.721 16.184 224.377 16.184C225.241 16.184 225.913 16.352 226.393 16.688C226.873 17.008 227.225 17.432 227.449 17.96C227.673 18.472 227.809 19.016 227.857 19.592C227.921 20.168 227.953 20.704 227.953 21.2V26H226.009V21.176C226.009 20.568 225.945 20.024 225.817 19.544C225.689 19.048 225.449 18.664 225.097 18.392C224.761 18.104 224.265 17.96 223.609 17.96C222.937 17.96 222.401 18.12 222.001 18.44C221.601 18.76 221.321 19.176 221.161 19.688C221.001 20.2 220.921 20.744 220.921 21.32V26H218.881ZM232.658 26C231.97 26 231.466 25.824 231.146 25.472C230.842 25.12 230.69 24.584 230.69 23.864V17.624H229.178V16.184C229.674 16.184 230.042 16.144 230.282 16.064C230.538 15.968 230.706 15.744 230.786 15.392C230.882 15.024 230.93 14.448 230.93 13.664H232.586V16.184H234.842V17.624H232.586V24.416H234.866V26H232.658Z" fill="black"/>
<path d="M7.056 850.272V852H1.416V850.272H3.264V840.216H1.416V838.488H7.056V840.216H5.232V850.272H7.056ZM22.1014 852.288C21.1254 852.288 20.1894 852.136 19.2934 851.832C18.3974 851.512 17.6614 851.016 17.0854 850.344C16.5254 849.656 16.2374 848.768 16.2214 847.68H18.2374C18.2374 847.744 18.2614 847.928 18.3094 848.232C18.3734 848.52 18.5254 848.84 18.7654 849.192C19.0214 849.528 19.4214 849.824 19.9654 850.08C20.5094 850.336 21.2694 850.464 22.2454 850.464C23.0294 850.464 23.6454 850.352 24.0934 850.128C24.5574 849.904 24.8774 849.64 25.0534 849.336C25.2454 849.032 25.3494 848.76 25.3654 848.52C25.3654 848.024 25.2054 847.624 24.8854 847.32C24.5814 847.016 24.1654 846.776 23.6374 846.6C23.1094 846.408 22.5254 846.24 21.8854 846.096C21.2614 845.936 20.6374 845.768 20.0134 845.592C19.3894 845.4 18.8134 845.152 18.2854 844.848C17.7734 844.544 17.3654 844.152 17.0614 843.672C16.7734 843.176 16.6534 842.544 16.7014 841.776C16.7494 840.672 17.2694 839.808 18.2614 839.184C19.2694 838.56 20.5654 838.248 22.1494 838.248C23.0774 838.248 23.9414 838.416 24.7414 838.752C25.5414 839.088 26.1814 839.592 26.6614 840.264C27.1414 840.936 27.3814 841.776 27.3814 842.784H25.4374C25.4374 842.224 25.3174 841.776 25.0774 841.44C24.8374 841.088 24.5334 840.816 24.1654 840.624C23.7974 840.432 23.4134 840.304 23.0134 840.24C22.6134 840.16 22.2534 840.12 21.9334 840.12C21.0214 840.12 20.2694 840.288 19.6774 840.624C19.1014 840.96 18.8134 841.416 18.8134 841.992C18.7974 842.504 18.9494 842.912 19.2694 843.216C19.5894 843.52 20.0134 843.76 20.5414 843.936C21.0694 844.112 21.6454 844.272 22.2694 844.416C22.9094 844.56 23.5414 844.72 24.1654 844.896C24.8054 845.072 25.3814 845.312 25.8934 845.616C26.4214 845.904 26.8294 846.304 27.1174 846.816C27.4214 847.312 27.5574 847.944 27.5254 848.712C27.4774 849.464 27.2134 850.112 26.7334 850.656C26.2694 851.184 25.6374 851.592 24.8374 851.88C24.0374 852.152 23.1254 852.288 22.1014 852.288ZM32.9743 852C32.2863 852 31.7823 851.824 31.4623 851.472C31.1583 851.12 31.0063 850.584 31.0063 849.864V843.624H29.4943V842.184C29.9903 842.184 30.3583 842.144 30.5983 842.064C30.8543 841.968 31.0223 841.744 31.1023 841.392C31.1983 841.024 31.2463 840.448 31.2463 839.664H32.9023V842.184H35.1583V843.624H32.9023V850.416H35.1823V852H32.9743ZM41.2547 852.216C40.3427 852.216 39.6067 852.008 39.0467 851.592C38.4867 851.16 38.0707 850.568 37.7987 849.816C37.5427 849.048 37.4147 848.176 37.4147 847.2C37.4147 845.712 37.7187 844.496 38.3267 843.552C38.9347 842.592 39.9107 842.112 41.2547 842.112C41.9747 842.112 42.5587 842.24 43.0067 842.496C43.4547 842.752 43.7987 843.04 44.0387 843.36C44.2947 843.68 44.4707 843.96 44.5667 844.2H44.6147V842.184H46.6547V852H44.9507L44.6147 850.248H44.5667C44.4707 850.488 44.2947 850.768 44.0387 851.088C43.7827 851.392 43.4307 851.656 42.9827 851.88C42.5347 852.104 41.9587 852.216 41.2547 852.216ZM42.0467 850.512C42.9907 850.512 43.6467 850.208 44.0147 849.6C44.3987 848.992 44.5907 848.2 44.5907 847.224C44.5907 846.2 44.3907 845.392 43.9907 844.8C43.6067 844.208 42.9587 843.912 42.0467 843.912C41.3747 843.912 40.8467 844.064 40.4627 844.368C40.0787 844.656 39.7987 845.048 39.6227 845.544C39.4627 846.04 39.3827 846.592 39.3827 847.2C39.3827 848.144 39.5827 848.936 39.9827 849.576C40.3827 850.2 41.0707 850.512 42.0467 850.512ZM49.305 852V842.184H51.153L51.321 844.848C51.417 844.416 51.601 844 51.873 843.6C52.161 843.184 52.553 842.848 53.049 842.592C53.561 842.32 54.209 842.184 54.993 842.184H55.401V844.392H54.969C53.993 844.392 53.241 844.52 52.713 844.776C52.185 845.016 51.817 845.376 51.609 845.856C51.401 846.32 51.297 846.896 51.297 847.584V852H49.305ZM60.8452 852C60.1572 852 59.6532 851.824 59.3332 851.472C59.0292 851.12 58.8772 850.584 58.8772 849.864V843.624H57.3652V842.184C57.8612 842.184 58.2292 842.144 58.4692 842.064C58.7252 841.968 58.8932 841.744 58.9732 841.392C59.0692 841.024 59.1172 840.448 59.1172 839.664H60.7732V842.184H63.0292V843.624H60.7732V850.416H63.0532V852H60.8452ZM69.9953 852.24C68.8913 852.24 67.9873 852 67.2833 851.52C66.5793 851.024 66.0593 850.392 65.7233 849.624C65.3873 848.856 65.2193 848.048 65.2193 847.2C65.2033 846.256 65.3793 845.4 65.7473 844.632C66.1313 843.864 66.6753 843.256 67.3793 842.808C68.0993 842.36 68.9553 842.136 69.9473 842.136C70.7953 842.136 71.5553 842.328 72.2273 842.712C72.9153 843.08 73.4593 843.608 73.8593 844.296C74.2593 844.968 74.4753 845.768 74.5073 846.696C74.5073 846.744 74.5073 846.84 74.5073 846.984C74.5233 847.112 74.5313 847.224 74.5313 847.32H67.1153C67.1153 848.344 67.3633 849.144 67.8593 849.72C68.3713 850.28 69.0753 850.56 69.9713 850.56C70.6433 850.56 71.2113 850.392 71.6753 850.056C72.1553 849.704 72.4513 849.24 72.5633 848.664H74.5073C74.3633 849.688 73.8993 850.544 73.1153 851.232C72.3313 851.904 71.2913 852.24 69.9953 852.24ZM67.1873 846.336H72.5153C72.4993 846.16 72.4513 845.928 72.3713 845.64C72.2913 845.352 72.1553 845.072 71.9633 844.8C71.7873 844.512 71.5313 844.272 71.1953 844.08C70.8593 843.888 70.4273 843.792 69.8993 843.792C69.2433 843.792 68.7233 843.936 68.3393 844.224C67.9713 844.496 67.6913 844.832 67.4993 845.232C67.3233 845.616 67.2193 845.984 67.1873 846.336ZM81.492 852.24C80.052 852.24 78.996 851.776 78.324 850.848C77.652 849.904 77.316 848.704 77.316 847.248C77.316 845.744 77.652 844.528 78.324 843.6C79.012 842.656 80.068 842.184 81.492 842.184C82.132 842.184 82.668 842.288 83.1 842.496C83.532 842.704 83.876 842.952 84.132 843.24C84.404 843.528 84.596 843.792 84.708 844.032C84.836 844.272 84.908 844.424 84.924 844.488H84.972L84.996 838.488H87.036V852H85.308L84.996 850.032H84.948C84.916 850.096 84.828 850.248 84.684 850.488C84.556 850.712 84.356 850.96 84.084 851.232C83.828 851.504 83.484 851.744 83.052 851.952C82.62 852.144 82.1 852.24 81.492 852.24ZM82.068 850.512C82.996 850.512 83.708 850.216 84.204 849.624C84.7 849.016 84.948 848.216 84.948 847.224C84.948 846.264 84.708 845.488 84.228 844.896C83.764 844.288 83.076 843.984 82.164 843.984C81.46 843.984 80.892 844.144 80.46 844.464C80.044 844.768 79.74 845.168 79.548 845.664C79.372 846.16 79.284 846.68 79.284 847.224C79.284 847.784 79.364 848.32 79.524 848.832C79.7 849.328 79.988 849.736 80.388 850.056C80.804 850.36 81.364 850.512 82.068 850.512ZM98.5712 852H96.5792V838.488H98.5712V844.296H105.627V838.488H107.595V852H105.627V845.856H98.5712V852ZM115.25 852.24C114.146 852.24 113.242 852 112.538 851.52C111.834 851.024 111.314 850.392 110.978 849.624C110.642 848.856 110.474 848.048 110.474 847.2C110.458 846.256 110.634 845.4 111.002 844.632C111.386 843.864 111.93 843.256 112.634 842.808C113.354 842.36 114.21 842.136 115.202 842.136C116.05 842.136 116.81 842.328 117.482 842.712C118.17 843.08 118.714 843.608 119.114 844.296C119.514 844.968 119.73 845.768 119.762 846.696C119.762 846.744 119.762 846.84 119.762 846.984C119.778 847.112 119.786 847.224 119.786 847.32H112.37C112.37 848.344 112.618 849.144 113.114 849.72C113.626 850.28 114.33 850.56 115.226 850.56C115.898 850.56 116.466 850.392 116.93 850.056C117.41 849.704 117.706 849.24 117.818 848.664H119.762C119.618 849.688 119.154 850.544 118.37 851.232C117.586 851.904 116.546 852.24 115.25 852.24ZM112.442 846.336H117.77C117.754 846.16 117.706 845.928 117.626 845.64C117.546 845.352 117.41 845.072 117.218 844.8C117.042 844.512 116.786 844.272 116.45 844.08C116.114 843.888 115.682 843.792 115.154 843.792C114.498 843.792 113.978 843.936 113.594 844.224C113.226 844.496 112.946 844.832 112.754 845.232C112.578 845.616 112.474 845.984 112.442 846.336ZM122.595 852V842.184H124.443L124.611 844.848C124.707 844.416 124.891 844 125.163 843.6C125.451 843.184 125.843 842.848 126.339 842.592C126.851 842.32 127.499 842.184 128.283 842.184H128.691V844.392H128.259C127.283 844.392 126.531 844.52 126.003 844.776C125.475 845.016 125.107 845.376 124.899 845.856C124.691 846.32 124.587 846.896 124.587 847.584V852H122.595ZM135.229 852.24C134.125 852.24 133.221 852 132.517 851.52C131.813 851.024 131.293 850.392 130.957 849.624C130.621 848.856 130.453 848.048 130.453 847.2C130.437 846.256 130.613 845.4 130.981 844.632C131.365 843.864 131.909 843.256 132.613 842.808C133.333 842.36 134.189 842.136 135.181 842.136C136.029 842.136 136.789 842.328 137.461 842.712C138.149 843.08 138.693 843.608 139.093 844.296C139.493 844.968 139.709 845.768 139.741 846.696C139.741 846.744 139.741 846.84 139.741 846.984C139.757 847.112 139.765 847.224 139.765 847.32H132.349C132.349 848.344 132.597 849.144 133.093 849.72C133.605 850.28 134.309 850.56 135.205 850.56C135.877 850.56 136.445 850.392 136.909 850.056C137.389 849.704 137.685 849.24 137.797 848.664H139.741C139.597 849.688 139.133 850.544 138.349 851.232C137.565 851.904 136.525 852.24 135.229 852.24ZM132.421 846.336H137.749C137.733 846.16 137.685 845.928 137.605 845.64C137.525 845.352 137.389 845.072 137.197 844.8C137.021 844.512 136.765 844.272 136.429 844.08C136.093 843.888 135.661 843.792 135.133 843.792C134.477 843.792 133.957 843.936 133.573 844.224C133.205 844.496 132.925 844.832 132.733 845.232C132.557 845.616 132.453 845.984 132.421 846.336Z" fill="black"/>
<defs>
<clipPath id="clip0_4492_1476">
<rect width="40" height="40" fill="white" transform="translate(38.9443 726.685) rotate(-1.0618)"/>
</clipPath>
<clipPath id="clip1_4492_1476">
<rect width="40" height="40" fill="white" transform="translate(58.3887 657) rotate(27.3696)"/>
</clipPath>
<clipPath id="clip2_4492_1476">
<rect width="40" height="40" fill="white" transform="translate(111.928 601) rotate(41.6261)"/>
</clipPath>
<clipPath id="clip3_4492_1476">
<rect width="40" height="40" fill="white" transform="translate(196.298 568.579) rotate(67.5098)"/>
</clipPath>
<clipPath id="clip4_4492_1476">
<rect width="40" height="40" fill="white" transform="translate(281.032 560.052) rotate(87.8788)"/>
</clipPath>
<clipPath id="clip5_4492_1476">
<rect width="40" height="40" fill="white" transform="translate(355.966 545.228) rotate(83.4369)"/>
</clipPath>
<clipPath id="clip6_4492_1476">
<rect width="40" height="40" fill="white" transform="translate(421.328 527.078) rotate(53.9329)"/>
</clipPath>
<clipPath id="clip7_4492_1476">
<rect width="40" height="40" fill="white" transform="translate(457.467 487) rotate(27.495)"/>
</clipPath>
<clipPath id="clip8_4492_1476">
<rect width="40" height="40" fill="white" transform="translate(468.009 432) rotate(7.19407)"/>
</clipPath>
<clipPath id="clip9_4492_1476">
<rect width="40" height="40" fill="white" transform="translate(463 324.449) rotate(-13.6635)"/>
</clipPath>
<clipPath id="clip10_4492_1476">
<rect width="40" height="40" fill="white" transform="translate(378.399 264.414) rotate(-64.2036)"/>
</clipPath>
<clipPath id="clip11_4492_1476">
<rect width="40" height="40" fill="white" transform="translate(49 73.425) rotate(-24.2441)"/>
</clipPath>
<clipPath id="clip12_4492_1476">
<rect width="40" height="40" fill="white" transform="translate(435 283.368) rotate(-39.3615)"/>
</clipPath>
<clipPath id="clip13_4492_1476">
<rect width="40" height="40" fill="white" transform="translate(311 254.581) rotate(-81.7011)"/>
</clipPath>
<clipPath id="clip14_4492_1476">
<rect width="40" height="40" fill="white" transform="translate(221 230.037) rotate(-64.2815)"/>
</clipPath>
<clipPath id="clip15_4492_1476">
<rect width="40" height="40" fill="white" transform="translate(150.904 187.108) rotate(-51.2679)"/>
</clipPath>
<clipPath id="clip16_4492_1476">
<rect width="40" height="40" fill="white" transform="translate(101.124 129.903) rotate(-40.1272)"/>
</clipPath>
</defs>
</svg>
